<svg width="32" height="32" viewBox="0 0 32 32" fill="none" xmlns="http://www.w3.org/2000/svg">
<path fill-rule="evenodd" clip-rule="evenodd" d="M31.9389 16C31.9389 24.8366 24.7935 32 15.9791 32C7.16465 32 0.019165 24.8366 0.019165 16H31.9389Z" fill="white"/>
<path fill-rule="evenodd" clip-rule="evenodd" d="M0.33837 19.2C0.107276 17.9258 0.000798674 16.9426 0 16H32C31.9891 16.9576 31.8627 17.9663 31.6198 19.2H0.33837Z" fill="black"/>
<path fill-rule="evenodd" clip-rule="evenodd" d="M23.959 16C23.959 20.4183 20.3863 24 15.9791 24C11.5719 24 7.99915 20.4183 7.99915 16H23.959Z" fill="black"/>
<path fill-rule="evenodd" clip-rule="evenodd" d="M19.969 16C19.969 18.2091 18.1826 20 15.979 20C13.7754 20 11.9891 18.2091 11.9891 16H19.969Z" fill="white"/>
<path fill-rule="evenodd" clip-rule="evenodd" d="M31.9389 16C31.9389 7.16344 24.7935 0 15.9791 0C7.16465 0 0.019165 7.16344 0.019165 16H31.9389Z" fill="#FF1C1C"/>
<path fill-rule="evenodd" clip-rule="evenodd" d="M0.33837 12.8C0.107276 14.0742 0.000798674 15.0574 0 16H32C31.9891 15.0424 31.8627 14.0337 31.6198 12.8H0.33837Z" fill="black"/>
<path fill-rule="evenodd" clip-rule="evenodd" d="M23.959 16C23.959 11.5817 20.3863 8 15.9791 8C11.5719 8 7.99915 11.5817 7.99915 16H23.959Z" fill="black"/>
<path fill-rule="evenodd" clip-rule="evenodd" d="M19.969 16C19.969 13.7909 18.1826 12 15.979 12C13.7754 12 11.9891 13.7909 11.9891 16H19.969Z" fill="white"/>
</svg>
