<svg width="33" height="25" viewBox="0 0 33 25" fill="none" xmlns="http://www.w3.org/2000/svg">
<path fill-rule="evenodd" clip-rule="evenodd" d="M0.155599 8.00023C0.10378 16.8366 7.20696 24.0419 16.021 24.0935C24.835 24.1452 32.0222 17.0238 32.0741 8.18741L0.155599 8.00023Z" fill="white"/>
<path fill-rule="evenodd" clip-rule="evenodd" d="M31.7361 11.3855C31.9716 10.1289 32.084 9.15527 32.093 8.22362L0.0945772 7.99982C0.146125 9.396 0.269249 10.4117 0.456042 11.2021L31.7361 11.3855Z" fill="black"/>
<path fill-rule="evenodd" clip-rule="evenodd" d="M8.13529 8.04705C8.10938 12.4653 11.661 16.0679 16.068 16.0937C20.475 16.1196 24.0686 12.5588 24.0945 8.14064L8.13529 8.04705Z" fill="black"/>
<path fill-rule="evenodd" clip-rule="evenodd" d="M12.125 8.07046C12.1121 10.2796 13.8879 12.0809 16.0914 12.0938C18.2949 12.1067 20.0917 10.3264 20.1046 8.11726L12.125 8.07046Z" fill="white"/>
</svg>
