<svg width="34" height="25" viewBox="0 0 34 25" fill="none" xmlns="http://www.w3.org/2000/svg">
<path fill-rule="evenodd" clip-rule="evenodd" d="M33.0678 16.2232C33.1196 7.38675 26.0164 0.181531 17.2024 0.129844C8.38835 0.0781561 1.20116 7.19958 1.14934 16.036L33.0678 16.2232Z" fill="#FF1C1C"/>
<path fill-rule="evenodd" clip-rule="evenodd" d="M1.48723 12.8379C1.25172 14.0945 1.00891 15.0684 1 16C6.06922 16.0602 17.5444 16.1254 33.1288 16.2236C33.0772 14.8274 32.9541 13.8117 32.7673 13.0213L1.48723 12.8379Z" fill="black"/>
<path fill-rule="evenodd" clip-rule="evenodd" d="M25.0881 16.1764C25.114 11.7582 21.5624 8.15559 17.1554 8.12974C12.7484 8.1039 9.15478 11.6646 9.12887 16.0828L25.0881 16.1764Z" fill="black"/>
<path fill-rule="evenodd" clip-rule="evenodd" d="M21.0982 16.153C21.1112 13.9439 19.3354 12.1426 17.1319 12.1297C14.9284 12.1167 13.1316 13.8971 13.1186 16.1062L21.0982 16.153Z" fill="white"/>
</svg>
