<svg width="32" height="16" viewBox="0 0 32 16" fill="none" xmlns="http://www.w3.org/2000/svg">
<path fill-rule="evenodd" clip-rule="evenodd" d="M31.9389 16C31.9389 7.16344 24.7935 0 15.9791 0C7.16465 0 0.019165 7.16344 0.019165 16H31.9389Z" fill="#FF1C1C"/>
<path fill-rule="evenodd" clip-rule="evenodd" d="M0.33837 12.8C0.107276 14.0742 0.000798674 15.0574 0 16H32C31.9891 15.0424 31.8627 14.0337 31.6198 12.8H0.33837Z" fill="black"/>
<path fill-rule="evenodd" clip-rule="evenodd" d="M23.959 16C23.959 11.5817 20.3863 8 15.9791 8C11.5719 8 7.99915 11.5817 7.99915 16H23.959Z" fill="black"/>
<path fill-rule="evenodd" clip-rule="evenodd" d="M19.969 16C19.969 13.7909 18.1826 12 15.979 12C13.7754 12 11.9891 13.7909 11.9891 16H19.969Z" fill="white"/>
</svg>
