<svg width="32" height="16" viewBox="0 0 32 16" fill="none" xmlns="http://www.w3.org/2000/svg">
<path fill-rule="evenodd" clip-rule="evenodd" d="M31.9389 0C31.9389 8.83656 24.7935 16 15.9791 16C7.16465 16 0.019165 8.83656 0.019165 0H31.9389Z" fill="white"/>
<path fill-rule="evenodd" clip-rule="evenodd" d="M0.33837 3.19995C0.107276 1.92576 0.000798674 0.942586 0 -4.86374e-05H32C31.9891 0.957616 31.8627 1.96632 31.6198 3.19995H0.33837Z" fill="black"/>
<path fill-rule="evenodd" clip-rule="evenodd" d="M23.959 0C23.959 4.41828 20.3863 8 15.9791 8C11.5719 8 7.99915 4.41828 7.99915 0H23.959Z" fill="black"/>
<path fill-rule="evenodd" clip-rule="evenodd" d="M19.969 0C19.969 2.20914 18.1826 4 15.979 4C13.7754 4 11.9891 2.20914 11.9891 0H19.969Z" fill="white"/>
</svg>
